<svg xmlns="http://www.w3.org/2000/svg" viewBox="0 0 512 512" role="img" aria-labelledby="waTitle waDesc">
  <title id="waTitle">WhatsApp</title>
  <desc id="waDesc">Official style WhatsApp logo green rounded square with white phone symbol</desc>
  <rect width="512" height="512" rx="108" fill="#25D366"/>
  <path fill="#fff" d="M256 108c-80.9 0-146.6 64.3-146.6 143.4 0 24.9 6.7 49.1 19.6 70.2L108 404l79.6-20.7c18 9.8 38.5 15 59 15h.2c80.9 0 146.8-64.4 146.8-143.4 0-38.3-15.3-74.3-43.2-101.5C322.4 122.4 290.4 108 256 108Zm.2 257.2c-18 0-35.6-4.7-50.9-13.6l-3.6-2.1-48.7 12.7 13-47.3-2.3-3.7c-11.9-18.8-18.2-40.4-18.2-62.9 0-64.9 53.5-117.7 119.8-117.7 31.9 0 61.9 12.3 84.4 34.6 22.5 22.2 34.9 51.7 34.9 83.1 0 64.9-53.6 117.9-119.4 117.9Zm65.5-88.3c-3.6-1.8-21.3-10.7-24.6-11.9-3.3-1.2-5.6-1.8-7.9 1.8-2.3 3.5-9.1 11.9-11.1 14.2-2.1 2.3-4.1 2.6-7.7.8-21-10.5-34.8-18.6-48.6-42.2-3.7-6.3 3.7-5.8 10.5-19.4 1.1-2.3.5-4.4-.3-6.2-.9-1.8-8-19.3-10.9-26.3-2.8-6.8-5.8-5.8-7.9-6-2.1-.1-4.4-.1-6.7-.1-2.3 0-6.1.9-9.3 4.4-3.2 3.5-12.3 12-12.3 29.1 0 17.1 12.6 33 14.4 35.2 1.8 2.3 24.8 37.2 60 52.1 8.4 3.6 15 5.6 20.4 7.2 8.5 2.7 16.1 2.3 22.2 1.4 6.8-1 21.2-8.4 24.1-16.6 2.9-8.2 2.9-15.2 2-16.7-.8-1.5-3.3-2.3-6.8-4.1Z"/>
</svg>
